<svg xmlns="http://www.w3.org/2000/svg" xmlns:xlink="http://www.w3.org/1999/xlink" width="500" zoomAndPan="magnify" viewBox="0 0 375 374.999991" height="500" preserveAspectRatio="xMidYMid meet" version="1.0"><defs><clipPath id="ab846eb923"><path d="M 17 188 L 348 188 L 348 243.6875 L 17 243.6875 Z M 17 188 " clip-rule="nonzero"/></clipPath></defs><path fill="#5271ff" d="M 18.332031 219.574219 C 64.421875 202.105469 114.710938 208.933594 169.175781 240 C 116.136719 219.738281 65.777344 212.59375 18.332031 219.574219 " fill-opacity="1" fill-rule="evenodd"/><g clip-path="url(#ab846eb923)"><path fill="#5271ff" d="M 17.542969 211.328125 C 45.351562 197.046875 92.292969 201.730469 150.859375 217.9375 C 194.953125 230.144531 233.671875 243.84375 280.148438 243.300781 C 317.832031 242.859375 356.648438 232.121094 346.136719 189.058594 C 342.453125 219.296875 311.820312 226.074219 281.207031 225.226562 C 237.648438 224.015625 196.269531 209.351562 154.609375 198.273438 C 89.132812 180.863281 44.203125 186.050781 17.542969 211.328125 " fill-opacity="1" fill-rule="evenodd"/></g><path fill="#5271ff" d="M 0 195.804688 C 113.699219 171.277344 227.394531 158.472656 341.09375 169.617188 C 318.398438 186.351562 297.375 204.148438 276.480469 222.023438 C 278.082031 222.109375 279.683594 222.167969 281.285156 222.214844 C 286.484375 222.359375 292.296875 222.300781 298.207031 221.773438 C 322.761719 200.625 348.421875 179.949219 375 159.664062 C 241.441406 139.421875 118.894531 158.046875 0 195.804688 " fill-opacity="1" fill-rule="evenodd"/><path fill="#5271ff" d="M 268.453125 148.367188 C 192.960938 105.390625 130.308594 128.582031 44.785156 164.089844 C 92.839844 149.96875 180.773438 121.929688 233.429688 149.035156 C 245.109375 148.535156 256.78125 148.308594 268.453125 148.367188 " fill-opacity="1" fill-rule="evenodd"/><path fill="#5271ff" d="M 245.507812 129.984375 C 186.183594 98.3125 155.570312 110.691406 91.847656 137.929688 C 168.207031 110.339844 197.828125 114.027344 245.507812 129.984375 " fill-opacity="1" fill-rule="evenodd"/></svg>